<?xml version="1.0" encoding="UTF-8" standalone="no"?>
<!-- Created with Inkscape (http://www.inkscape.org/) -->

<svg
   xmlns:dc="http://purl.org/dc/elements/1.1/"
   xmlns:cc="http://creativecommons.org/ns#"
   xmlns:rdf="http://www.w3.org/1999/02/22-rdf-syntax-ns#"
   xmlns:svg="http://www.w3.org/2000/svg"
   xmlns="http://www.w3.org/2000/svg"
   xmlns:inkscape="http://www.inkscape.org/namespaces/inkscape"
   version="1.1"
   width="765"
   height="990"
   id="svg2"
   xml:space="preserve"><metadata
     id="metadata8"><rdf:RDF><cc:Work
         rdf:about=""><dc:format>image/svg+xml</dc:format><dc:type
           rdf:resource="http://purl.org/dc/dcmitype/StillImage" /></cc:Work></rdf:RDF></metadata><defs
     id="defs6"><clipPath
       id="clipPath16"><path
         d="M 0,792 612,792 612,0 0,0 0,792 z"
         inkscape:connector-curvature="0"
         id="path18" /></clipPath><clipPath
       id="clipPath24"><path
         d="m 19.9746,771.87 375.7254,0 0,-406.789 -375.7254,0 0,406.789 z"
         inkscape:connector-curvature="0"
         id="path26" /></clipPath></defs><g
     transform="matrix(1.25,0,0,-1.25,0,990)"
     id="g10"><g
       id="g12"><g
         clip-path="url(#clipPath16)"
         id="g14"><g
           id="g20"><g
             id="g22" /><g
             id="g28"><g
               clip-path="url(#clipPath24)"
               id="g30"
               style="opacity:0.30000299"><g
                 transform="translate(289.0659,645.7769)"
                 id="g32"><path
                   d="M 0,0 C -0.145,0.552 -0.187,1.065 -0.291,1.603 -1.026,1.75 -1.722,1.969 -2.457,2.097 -1.632,1.413 -0.814,0.713 0,0"
                   inkscape:connector-curvature="0"
                   id="path34"
                   style="fill:#373535;fill-opacity:1;fill-rule:nonzero;stroke:none" /></g><g
                 transform="translate(202.981,639.8247)"
                 id="g36"><path
                   d="M 0,0 C -0.408,-0.166 -0.832,-0.291 -1.226,-0.466 -0.803,-0.319 -0.408,-0.158 0,0"
                   inkscape:connector-curvature="0"
                   id="path38"
                   style="fill:#373535;fill-opacity:1;fill-rule:nonzero;stroke:none" /></g><g
                 transform="translate(176.7432,738.7998)"
                 id="g40"><path
                   d="M 0,0 C -3.129,-0.015 -5.887,-1.649 -6.891,-3.407 -5.607,-3.919 0.424,-2.403 0,0"
                   inkscape:connector-curvature="0"
                   id="path42"
                   style="fill:#373535;fill-opacity:1;fill-rule:nonzero;stroke:none" /></g><g
                 transform="translate(176.231,732.4131)"
                 id="g44"><path
                   d="M 0,0 C -2.169,-0.581 -8.512,-1.176 -8.857,-4.393 -6.006,-1.8 -0.634,-4.077 0,0"
                   inkscape:connector-curvature="0"
                   id="path46"
                   style="fill:#373535;fill-opacity:1;fill-rule:nonzero;stroke:none" /></g><g
                 transform="translate(313.334,752.8916)"
                 id="g48"><path
                   d="M 0,0 C 8.462,6.591 -1.8,25.929 -13.343,16.376 -24.66,7.014 -9.652,-7.509 0,0"
                   inkscape:connector-curvature="0"
                   id="path50"
                   style="fill:#373535;fill-opacity:1;fill-rule:nonzero;stroke:none" /></g><g
                 transform="translate(24.7598,622.4731)"
                 id="g52"><path
                   d="M 0,0 C 0.553,-1.109 1.108,-2.235 1.656,-3.357 2.65,-2.292 6.479,-2.192 5.443,-0.431 3.198,-1.563 2.298,1.312 0,0"
                   inkscape:connector-curvature="0"
                   id="path54"
                   style="fill:#ffffff;fill-opacity:1;fill-rule:nonzero;stroke:none" /></g><g
                 transform="translate(94.3169,636.0342)"
                 id="g56"><path
                   d="M 0,0 C 5.009,0.721 7.577,5.132 12.178,9.165 8.706,9.237 6.981,14.483 2.973,12.97 2.75,10.399 1.001,9.011 4.221,8.355 -0.588,6.724 -0.67,3.493 0,0"
                   inkscape:connector-curvature="0"
                   id="path58"
                   style="fill:#373535;fill-opacity:1;fill-rule:nonzero;stroke:none" /></g><g
                 transform="translate(293.1069,719.8804)"
                 id="g60"><path
                   d="M 0,0 C -8.868,-5.016 -1.807,1.531 -2.087,2.109 -3.761,1.271 -5.44,0.438 -7.119,-0.387 -2.625,-3.366 -12.572,-4.98 -8.811,-5.399 -6.477,-3.826 2.413,-0.853 0,0"
                   inkscape:connector-curvature="0"
                   id="path62"
                   style="fill:#373535;fill-opacity:1;fill-rule:nonzero;stroke:none" /></g><g
                 transform="translate(305.2187,710.2134)"
                 id="g64"><path
                   d="M 0,0 C -2.807,-1.875 -12.464,-5.084 -10.495,-6.25 -5.346,-2.764 -1.014,-4.877 0,0"
                   inkscape:connector-curvature="0"
                   id="path66"
                   style="fill:#ffffff;fill-opacity:1;fill-rule:nonzero;stroke:none" /></g><g
                 transform="translate(266.7261,604.4038)"
                 id="g68"><path
                   d="M 0,0 C 1.427,0.474 8.254,1.743 9.646,3.74 7.121,3.263 1.18,3.374 0,0"
                   inkscape:connector-curvature="0"
                   id="path70"
                   style="fill:#373535;fill-opacity:1;fill-rule:nonzero;stroke:none" /></g><g
                 transform="translate(262.1006,598.9927)"
                 id="g72"><path
                   d="m 0,0 c -2.259,-2.531 -6.168,-0.542 -6.634,-3.034 l 1.926,0 C -4.68,-3.086 -4.651,-3.137 -4.623,-3.18 -2.55,-2.708 0.089,-1.459 0,0"
                   inkscape:connector-curvature="0"
                   id="path74"
                   style="fill:#373535;fill-opacity:1;fill-rule:nonzero;stroke:none" /></g><g
                 transform="translate(255.4668,595.959)"
                 id="g76"><path
                   d="M 0,0 C -0.015,-0.111 -0.072,-0.175 -0.072,-0.308 0.323,-0.437 1.123,-0.365 2.011,-0.146 1.982,-0.104 1.954,-0.053 1.926,0 L 0,0 z"
                   inkscape:connector-curvature="0"
                   id="path78"
                   style="fill:#373535;fill-opacity:1;fill-rule:nonzero;stroke:none" /></g><g
                 transform="translate(153.5332,708.9048)"
                 id="g80"><path
                   d="M 0,0 C 3.604,2.291 3.273,4.995 6.407,4.4 3.875,-0.402 0.448,-0.018 -4.429,-0.968 -3.618,-2.887 -7.358,-3.27 -5.924,-5.396 2.183,-10.94 17.297,-3.27 14.766,7.312 12.766,5.748 7.584,1.058 6.397,1.929 9.71,4.917 7.713,9.688 13.798,11.748 12.801,15.566 11.112,16.362 11.876,20.597 6.695,17.617 4.213,21.676 2.539,22.113 -10.051,25.341 -16.38,9.517 -10.338,-1.438 -6.179,0.958 3.514,5.547 0,0"
                   inkscape:connector-curvature="0"
                   id="path82"
                   style="fill:#373535;fill-opacity:1;fill-rule:nonzero;stroke:none" /></g><g
                 transform="translate(240.7793,724.2622)"
                 id="g84"><path
                   d="m 0,0 c 2.743,-1.115 3.055,2.611 5.457,-0.437 18.488,8.24 6.006,27.869 -4.521,23.889 0.627,0.233 1.347,1.699 1.252,1.663 C -12.92,19.733 -11.593,4.698 0,0"
                   inkscape:connector-curvature="0"
                   id="path86"
                   style="fill:#373535;fill-opacity:1;fill-rule:nonzero;stroke:none" /></g><g
                 transform="translate(303.1973,733.249)"
                 id="g88"><path
                   d="M 0,0 C 0.015,-0.141 0.061,-0.197 0.082,-0.315 0.146,-0.169 0.226,-0.029 0.293,0.114 0.189,0.093 0.125,0.014 0,0"
                   inkscape:connector-curvature="0"
                   id="path90"
                   style="fill:#373535;fill-opacity:1;fill-rule:nonzero;stroke:none" /></g><g
                 transform="translate(199.0122,638.2148)"
                 id="g92"><path
                   d="M 0,0 C 0.907,0.401 1.825,0.764 2.743,1.144 1.735,0.824 0.703,0.53 -0.423,0.372 -0.276,0.24 -0.13,0.125 0,0"
                   inkscape:connector-curvature="0"
                   id="path94"
                   style="fill:#373535;fill-opacity:1;fill-rule:nonzero;stroke:none" /></g><g
                 transform="translate(306.1875,748.3125)"
                 id="g96"><path
                   d="m 0,0 c -3.209,0.657 -3.571,-5.103 -0.854,-6.701 -3.04,1.161 -3.986,-6.308 -0.444,-5.44 -0.523,-0.911 -0.946,-1.858 -1.399,-2.808 C 2.356,-13.737 -0.656,-4.69 0,0"
                   inkscape:connector-curvature="0"
                   id="path98"
                   style="fill:#373535;fill-opacity:1;fill-rule:nonzero;stroke:none" /></g><g
                 transform="translate(306.6396,641.9468)"
                 id="g100"><path
                   d="M 0,0 C 0.24,0.079 0.466,0.27 0.699,0.374 0.498,0.444 0.29,0.51 0.089,0.585 0.061,0.27 0.029,0.008 0,0"
                   inkscape:connector-curvature="0"
                   id="path102"
                   style="fill:#373535;fill-opacity:1;fill-rule:nonzero;stroke:none" /></g><g
                 transform="translate(305.377,640.2759)"
                 id="g104"><path
                   d="M 0,0 C 1.008,0.753 -0.989,1.75 -0.283,2.801 -1.334,3.138 -2.346,3.532 -3.403,3.844 -2.703,1.686 -2.091,-0.043 0,0"
                   inkscape:connector-curvature="0"
                   id="path106"
                   style="fill:#373535;fill-opacity:1;fill-rule:nonzero;stroke:none" /></g><g
                 transform="translate(200.8228,674.1626)"
                 id="g108"><path
                   d="M 0,0 C -2.646,3.506 -3.676,1.036 -5.433,4.632 -8.147,4.148 -7.014,2.369 -9.205,1.714 -9.037,-1.919 -6.11,2.609 -5.44,0.437 -6.681,-0.771 -10.883,-0.983 -10.055,-2.894 -5.934,-4.25 -4.5,-1.087 0,0"
                   inkscape:connector-curvature="0"
                   id="path110"
                   style="fill:#373535;fill-opacity:1;fill-rule:nonzero;stroke:none" /></g><g
                 transform="translate(132.7705,617.4702)"
                 id="g112"><path
                   d="M 0,0 C 1.231,-0.512 3.228,1.267 3.766,-1.276 9.288,-0.846 4.465,6.641 3.354,1.661 4.207,2.055 5.146,0.714 4.182,-0.014 4.021,2.536 -0.479,2.302 0,0"
                   inkscape:connector-curvature="0"
                   id="path114"
                   style="fill:#373535;fill-opacity:1;fill-rule:nonzero;stroke:none" /></g><g
                 transform="translate(153.3066,622.4116)"
                 id="g116"><path
                   d="m 0,0 c -0.537,3.246 -3.256,0.014 -5.02,-0.394 0.413,-0.843 0.829,-1.682 1.244,-2.522 C 0.079,-2.359 -3.273,1.168 0,0"
                   inkscape:connector-curvature="0"
                   id="path118"
                   style="fill:#373535;fill-opacity:1;fill-rule:nonzero;stroke:none" /></g><g
                 transform="translate(235.3428,501.2256)"
                 id="g120"><path
                   d="M 0,0 C 3.206,8.201 16.039,34.861 19.235,41.008 21.64,36.5 36.084,9.026 40.089,0.818 L 0,0 z m 59.381,202.738 c -1.969,1.165 7.688,4.375 10.495,6.25 -1.014,-4.877 -5.346,-2.764 -10.495,-6.25 m -5.949,-56.584 c 0.104,-0.538 0.147,-1.051 0.291,-1.603 -0.814,0.713 -1.632,1.413 -2.457,2.097 -5.905,4.917 -12.177,8.754 -20.962,5.122 5.948,6.837 10.732,14.073 6.788,24.257 1.438,0.592 4.191,-5.199 4.177,-2.105 2.969,-5.142 11.783,-8.655 19.661,-5.944 -5.396,-6.293 -9.144,-13.154 -7.498,-21.824 M 41.925,126.173 c -4.453,-0.846 -4.475,7.725 -4.98,10.074 1.789,0.523 4.88,-6.716 1.24,-4.619 0.401,-3.149 5.841,-1.778 3.74,-5.455 m -17.732,71.681 c 4.257,2.259 -2.058,5.787 -0.831,1.661 -3.123,0.211 -0.126,4.173 1.692,5.033 0.423,-0.803 1.342,-0.146 2.098,-0.017 -0.144,-0.99 -0.276,-2.005 0.832,-1.675 -0.234,-1.08 -0.904,-2.029 -1.692,-2.926 1.939,-2.108 2.452,1.846 4.202,2.08 0.832,-3.668 -3.894,-2.808 -6.301,-4.156 m -72.429,-66.822 c -0.337,-0.451 -0.892,-0.774 -1.567,-0.992 -0.936,-0.298 -2.04,-0.438 -2.901,-0.585 -0.946,2.188 1.997,3.062 4.214,4.174 0.724,-1.212 0.681,-2.016 0.254,-2.597 m -9.323,39.9 c -0.506,0.634 -0.065,0.947 0.419,1.255 0.563,0.276 1.116,0.552 1.686,0.828 0.66,-1.151 1.305,-2.309 0.398,-2.929 0.433,-0.803 1.355,-0.148 2.098,-0.015 -1.388,-3.514 -3.583,0.043 -4.601,0.861 m -32.487,-65.204 c -2.209,-1.646 -0.337,3.901 0.423,1.255 -0.52,5.353 1.926,6.293 4.65,9.61 2.784,-2.069 4.214,-1.955 7.115,0.395 -0.287,-1.073 0.032,-2.35 0.817,-3.776 -4.966,-3.138 -10.062,-5.15 -13.005,-7.484 M -94.249,66.79 c -2.284,0.655 -6.598,7.322 -8.702,8.52 -4.53,2.592 -9.037,5.264 -15.251,2.886 4.482,6.641 9.388,13.138 5.533,22.587 3.414,-1.915 16.24,5.952 4.177,-2.112 4.518,-5.339 10.306,-6.856 17.054,-5.572 0.725,0.14 1.445,0.275 2.184,0.481 l -4.995,-26.79 z m -7.466,54.048 c -0.043,-1.846 -1.699,-3.152 -4.199,-4.156 3.195,-1.86 3.393,-1.847 5.426,-4.639 -0.387,-0.044 -11.905,-2.604 -15.523,-6.642 -0.506,0.635 -0.061,0.947 0.427,1.256 -1.464,1.71 1.452,6.612 -0.811,7.953 3.64,3.399 9.374,6.2 14.68,6.228 m -34.437,-27.506 c -3.515,1.53 -5.899,0.598 -7.961,-2.901 -0.513,0.642 -0.065,0.946 0.424,1.255 1.093,1.427 -3.601,3.002 -5.437,2.535 3.055,0.896 8.961,4.83 14.25,4.973 2.887,-3.076 -3.475,-3.019 -1.276,-5.862 m -5.903,-11.288 c -0.039,3.026 3.625,-0.051 5.447,1.664 0.858,-6.097 -2.754,-0.757 -5.447,-1.664 m 256.356,35.41 c -12.184,10.194 -26.427,18.219 -42.305,23.641 -0.233,-0.104 -0.459,-0.295 -0.699,-0.374 0.029,0.008 0.06,0.27 0.089,0.586 -0.548,0.181 -1.086,0.368 -1.635,0.545 -0.706,-1.052 1.291,-2.048 0.283,-2.802 -2.091,-0.043 -2.703,1.686 -3.403,3.844 -0.71,0.212 -1.373,0.474 -2.08,0.678 -1.072,2.034 -1.939,3.998 -1.595,5.558 2.237,-1.693 2.998,-4.156 3.675,-6.236 1.057,-0.311 2.069,-0.706 3.12,-1.042 0.219,0.322 0.656,0.641 1.546,0.964 0.146,-0.162 0.133,-0.951 0.089,-1.509 0.201,-0.076 0.409,-0.141 0.61,-0.212 7.674,3.388 13.654,16.918 18.23,22.59 -15.401,15.982 -18.549,39.559 -19.891,57.021 -0.698,1.384 -2.553,-0.685 -3.348,0.431 1.395,0.692 2.792,1.391 4.195,2.076 -1.804,2.857 -3.78,1.954 -3.75,5.468 1.268,0.295 2.205,-0.409 3.772,0.818 -0.303,3.076 -2.78,-0.305 -3.267,2.209 -5.228,-11.185 -5.638,-23.997 -13.178,-34.396 1.574,-2.23 5.967,3.895 7.54,1.65 -3.362,-1.008 -7.816,-5.221 -10.484,-4.142 -0.674,1.385 2.098,1.618 1.682,2.915 -6.627,-2.8 -8.814,-3.162 -13.824,-3.718 0.983,1.065 4.82,1.166 3.784,2.916 -3.558,-0.172 -5.863,3.356 -8.778,5.062 1.15,0.438 6.124,2.88 2.936,2.507 -3.725,-2.069 -6.314,-0.757 -7.946,3.371 1.158,0.438 6.132,2.887 2.937,2.506 -4.658,-3.09 -4.905,0.724 -6.709,-3.331 -0.639,4.288 -3.629,10.055 -8.312,16.778 -3.163,-1.764 -6.168,-3.091 -8.807,-3.309 1.618,-9.61 -6.569,-23.261 4.522,-25.98 -0.061,3.679 -3.23,4.342 -2.496,7.121 1.722,-0.595 3.865,-3.237 3.332,-4.607 5.127,1.37 9.545,0.649 13.396,-1.736 -2.725,-1.341 -3.647,-3.987 -5.87,-0.817 1.043,-0.116 4.062,-0.409 2.109,2.093 -7.161,-2.736 -6.336,-3.829 -12.164,-4.98 -0.233,-2.32 1.646,-2.273 1.653,-5.454 4.777,0.495 1.549,3.676 2.532,5.44 0.247,-3.604 5.192,-3.697 3.748,-5.454 -1.052,1.262 -0.998,-0.714 -2.514,-1.255 0.466,2.072 -0.176,2.291 -2.51,0.846 3.245,-6.591 9.341,-20.518 12.854,-32.286 -6.633,10.703 -13.08,28.632 -19.524,39.433 -0.76,1.269 -0.147,6.576 -3.343,2.52 0.747,0.147 1.664,0.804 2.088,0 -6.616,-8.011 -10.284,-17.032 -25.61,-22.099 -8.997,0.312 -17.491,2.019 -24.258,8.875 -1.176,-0.527 -1.657,-1.305 -2.105,-2.079 -3.875,10.136 -13.36,12.227 -20.847,23.107 -2.216,-2.583 -7.516,-5.208 -10.916,-5.405 1.159,-8.01 3.425,-16.623 4.106,-20.948 -5.253,-1.495 -4.973,-3.592 -5.048,-8.777 3.431,-2.701 4.804,-6.082 7.504,-6.732 -5.511,-1.466 -3.019,-6.708 -5.888,-7.095 0.302,0.24 1.371,0.322 1.256,-0.424 -2.252,-15.064 -28.845,-22.53 -39.007,-16.186 -11.481,-4.522 -13.228,-6.505 -23.902,-10.793 4.775,-16.194 -0.846,-32.14 -20.622,-27.984 -9.252,5.802 -24.276,12.213 -35.948,17.717 7.365,-9.348 21.923,-15.035 30.895,-26.499 2.026,1.17 3.697,1.292 5.024,0.409 -2.321,-2.507 2.288,-8.208 5.407,-10.908 2.485,1.488 4.318,3.195 5.87,5.003 -1.348,-3.851 3.155,0.548 4.189,-2.109 -0.779,-4.547 -5.706,-3.697 -7.983,-7.085 2.726,-0.212 3.027,-7.578 6.25,-6.308 -2.693,-3.575 2.191,-7.978 3.339,-4.622 -1.101,-3.45 -2.998,-6.11 1.233,-6.695 -1.434,-2.079 -2.093,-0.513 -2.524,-3.349 0.552,-1.129 1.108,-2.23 1.66,-3.359 7.993,-2.758 17.108,-3.371 26.747,-2.597 -4.92,-15.232 -7.695,-31.501 -7.695,-48.459 0,-79.962 58.935,-136.145 139.917,-136.145 36.088,0 60.539,9.007 81.793,20.503 l -12.831,26.248 c -19.646,-11.897 -40.093,-20.502 -67.757,-20.502 -57.735,0 -107.842,43.466 -107.842,112.364 0,19.638 4.004,37.87 11.054,53.969 8.993,20.547 23.093,37.486 40.832,49.147 -4.311,0.925 -8.929,0.904 -13.992,-0.416 7.261,8.757 13.087,18.012 10.987,29.931 -0.348,1.94 -0.846,3.937 -1.646,6.038 4.36,0.305 2.683,3.274 7.981,5.003 -0.53,-2.384 -1.494,-4.622 -4.205,-6.265 2.159,0.008 3.442,1.621 6.702,1.22 2.527,2.915 -3.858,1.996 2.95,4.607 -6.895,-1.093 3.773,5.666 6.716,5.412 0.345,-1.052 -1.172,-1.46 -2.107,-2.088 1.649,-0.609 5.234,-0.502 4.202,2.08 1.94,-1.144 4.12,-1.599 5.849,-3.363 -7.004,-0.065 -11.45,-6.268 -18.683,-9.144 -0.408,-0.158 -0.803,-0.319 -1.226,-0.466 -0.917,-0.38 -1.836,-0.742 -2.743,-1.144 8.527,-8.051 18.524,-11.682 30.956,-8.123 -4.17,-3.66 -7.232,-7.694 -9.255,-12.083 11.275,3.994 23.422,6.243 36.27,6.243 12.339,0 24.064,-2.263 34.994,-6.2 42.37,-15.29 72.06,-57.341 72.06,-104.935 0,-28.299 -8.821,-45.926 -23.659,-45.926 -7.623,0 -13.223,5.335 -20.044,16.401 -8.8,14.738 -44.393,81.799 -62.856,112.221 -0.71,-0.176 -1.302,-0.222 -1.735,-0.183 4.478,2.084 8.717,3.75 12.629,4.758 -1.348,2.363 -5.073,-1.197 -8.377,0.044 4.178,4.127 19.417,8.996 12.594,9.022 10.585,5.213 14.103,0.996 21.873,6.174 -10.923,4.275 -22.648,6.716 -34.987,6.716 -12.854,0 -25,-2.428 -36.274,-6.759 -3.378,-7.921 -3.858,-16.897 -1.756,-26.815 -6.125,7.434 -12.88,12.827 -20.734,14.666 -17.731,-12.636 -31.831,-31.006 -40.824,-53.274 8.42,2.937 16.735,6.3 24.599,9.714 -1.007,-0.28 -2.696,0.402 -1.671,1.355 3.209,2.16 4.561,0.488 2.937,-1.82 22.07,7.522 45.374,23.737 64.823,33.698 C 4.322,71.96 -45.6,-24.168 -56.529,-43.051 l 30.073,-17.642 c 3.192,6.562 12.827,27.883 15.634,33.213 l 62.942,1.232 c 4.013,-6.97 8.013,-12.707 10.42,-15.992 9.632,-13.123 23.255,-19.278 38.888,-19.278 19.65,0 34.08,9.03 42.9,21.329 10.428,13.941 16.029,31.577 16.029,54.537 0,42.789 -17.262,79.016 -46.056,103.106"
                   inkscape:connector-curvature="0"
                   id="path122"
                   style="fill:#373535;fill-opacity:1;fill-rule:nonzero;stroke:none" /></g><g
                 transform="translate(185.5396,631.2651)"
                 id="g124"><path
                   d="M 0,0 C 0.535,0.312 1.025,0.685 1.567,0.993 1.995,1.574 2.037,2.377 1.313,3.59"
                   inkscape:connector-curvature="0"
                   id="path126"
                   style="fill:#373535;fill-opacity:1;fill-rule:nonzero;stroke:none" /></g><g
                 transform="translate(187.1064,632.2578)"
                 id="g128"><path
                   d="M 0,0 C -0.542,-0.308 -1.032,-0.681 -1.567,-0.993 -0.892,-0.774 -0.336,-0.451 0,0"
                   inkscape:connector-curvature="0"
                   id="path130"
                   style="fill:#373535;fill-opacity:1;fill-rule:nonzero;stroke:none" /></g><g
                 transform="translate(93.2881,583.2695)"
                 id="g132"><path
                   d="M 0,0 C 2.693,0.907 6.304,-4.433 5.447,1.664 3.625,-0.051 -0.04,3.026 0,0"
                   inkscape:connector-curvature="0"
                   id="path134"
                   style="fill:#373535;fill-opacity:1;fill-rule:nonzero;stroke:none" /></g><g
                 transform="translate(270.0356,707.4062)"
                 id="g136"><path
                   d="M 0,0 C -3.543,-3.098 7.075,4.31 10.908,5.411 12.905,7.767 1.48,3.208 0,0"
                   inkscape:connector-curvature="0"
                   id="path138"
                   style="fill:#373535;fill-opacity:1;fill-rule:nonzero;stroke:none" /></g><g
                 transform="translate(26.416,619.1162)"
                 id="g140"><path
                   d="M 0,0 C -0.548,1.122 -1.104,2.248 -1.656,3.357 0.642,4.669 1.542,1.793 3.787,2.926 4.823,1.165 0.994,1.065 0,0 M -3.299,12.995 C -12.339,4.375 0,-10.104 10.037,-3.381 c 9.421,6.3 -1.305,27.84 -13.336,16.376"
                   inkscape:connector-curvature="0"
                   id="path142"
                   style="fill:#373535;fill-opacity:1;fill-rule:nonzero;stroke:none" /></g><g
                 transform="translate(89.7456,647.3506)"
                 id="g144"><path
                   d="M 0,0 C 0.036,2.632 -1.718,2.421 -0.818,3.784 1.029,4.403 1.229,0.162 3.36,1.664 3.004,2.711 2.037,3.98 2.95,4.607 9.32,-1.416 12.253,13.877 6.372,20.913 2.607,25.406 -8.739,26.324 -13.329,18.478 -18.604,9.449 -9.129,-2.728 0,0"
                   inkscape:connector-curvature="0"
                   id="path146"
                   style="fill:#373535;fill-opacity:1;fill-rule:nonzero;stroke:none" /></g></g></g></g></g></g></g></svg>